<?xml version="1.0" encoding="UTF-8"?>
<svg version="1.1" xmlns="http://www.w3.org/2000/svg" width="1024" height="1024">
<path d="M0 0 C337.92 0 675.84 0 1024 0 C1024 337.92 1024 675.84 1024 1024 C686.08 1024 348.16 1024 0 1024 C0 686.08 0 348.16 0 0 Z " fill="#FAF9F7" transform="translate(0,0)"/>
<path d="M0 0 C0.98044785 0.10357819 1.96089569 0.20715637 2.97105408 0.31387329 C33.84370095 3.84370095 33.84370095 3.84370095 38.8125 8.8125 C38.50381393 23.01205901 25.6683548 35.47103738 16.1171875 44.7578125 C12.2679991 48.18946182 8.15439941 51.04244548 3.8125 53.8125 C2.94367188 54.38742187 2.07484375 54.96234375 1.1796875 55.5546875 C-11.35591463 63.41126265 -25.28803854 67.49599817 -39.5625 70.9375 C-56.23348804 74.96108171 -75.24298936 80.56247295 -85.1875 95.8125 C-93.41177551 110.15226242 -95.30468038 124.35316202 -92.1875 140.5625 C-87.1363513 159.02855988 -74.50648095 173.25122632 -58.1875 182.8125 C-50.61992922 186.86224086 -42.81971214 190.53109487 -34.7421875 193.44140625 C-31.1875 194.8125 -31.1875 194.8125 -29.1875 196.8125 C-28.13805727 199.87898329 -28.05875291 202.75688919 -28.0546875 205.98046875 C-28.05339844 206.95564453 -28.05210937 207.93082031 -28.05078125 208.93554688 C-28.05464844 209.94681641 -28.05851563 210.95808594 -28.0625 212 C-28.05863281 213.02287109 -28.05476562 214.04574219 -28.05078125 215.09960938 C-28.05271484 216.55657227 -28.05271484 216.55657227 -28.0546875 218.04296875 C-28.05581543 218.93395264 -28.05694336 219.82493652 -28.05810547 220.74291992 C-28.1875 222.8125 -28.1875 222.8125 -29.1875 223.8125 C-31.09187635 223.94322965 -33.00109977 224.00383885 -34.90966797 224.03710938 C-36.74825882 224.07088684 -36.74825882 224.07088684 -38.62399292 224.10534668 C-44.27423243 224.18115975 -49.92458707 224.23413743 -55.57519531 224.27246094 C-58.54942476 224.29462469 -61.52237711 224.33621252 -64.49609375 224.39550781 C-68.09600766 224.46714466 -71.69473236 224.5033743 -75.29532242 224.51557922 C-77.31770509 224.53087573 -79.33973442 224.58062132 -81.36154175 224.63122559 C-90.68522349 224.61121015 -95.7933505 222.29267632 -103.1875 216.8125 C-123.70593112 205.86673097 -149.97236531 206.41322555 -171.78515625 212.87890625 C-178.29098496 215.18448063 -183.6820635 218.17047211 -189.1640625 222.359375 C-192.7886064 224.96232931 -195.87354581 224.93873906 -200.20361328 224.94189453 C-202.06036179 224.94662277 -202.06036179 224.94662277 -203.95462036 224.95144653 C-205.30568477 224.94965703 -206.65674885 224.94760615 -208.0078125 224.9453125 C-209.39118466 224.94598602 -210.77455671 224.94695644 -212.15792847 224.94821167 C-215.05467864 224.94968541 -217.95139795 224.9475438 -220.84814453 224.94287109 C-224.56859341 224.93716332 -228.28897032 224.94046145 -232.00941658 224.94644356 C-234.86433459 224.95004881 -237.71923539 224.94891094 -240.5741539 224.94631577 C-241.94654219 224.94564695 -243.31893202 224.94647336 -244.69131851 224.94879532 C-246.60427065 224.95132236 -248.51722824 224.94679082 -250.43017578 224.94189453 C-251.5203299 224.94109894 -252.61048401 224.94030334 -253.7336731 224.93948364 C-256.1875 224.8125 -256.1875 224.8125 -257.1875 223.8125 C-257.44093003 220.06940241 -257.37273237 216.31315517 -257.375 212.5625 C-257.38724609 211.51191406 -257.39949219 210.46132813 -257.41210938 209.37890625 C-257.41404297 208.36183594 -257.41597656 207.34476563 -257.41796875 206.296875 C-257.42207764 205.36584961 -257.42618652 204.43482422 -257.43041992 203.47558594 C-257.09084547 199.75289432 -256.23850982 196.83624305 -253.53125 194.19921875 C-250.38436787 192.33731349 -247.06484143 191.0000092 -243.6875 189.625 C-226.19369681 182.20254412 -213.62586155 169.42499717 -200.42749023 156.18286133 C-198.49640453 154.24639451 -196.56000118 152.31536044 -194.62304688 150.38476562 C-193.3694708 149.13052895 -192.11620484 147.87598223 -190.86328125 146.62109375 C-190.01302116 145.77387001 -190.01302116 145.77387001 -189.14558411 144.90953064 C-186.38874226 142.13682522 -183.71792768 139.3174009 -181.15220642 136.36647034 C-180.53725154 135.66092546 -179.92229666 134.95538057 -179.28870678 134.22845554 C-178.59530854 133.43119021 -177.90191031 132.63392488 -177.1875 131.8125 C-158.70595285 110.570737 -139.81755172 89.73923319 -120.4375 69.3125 C-119.74460609 68.58096978 -119.05171218 67.84943955 -118.33782148 67.09574175 C-49.6858459 -5.28198584 -49.6858459 -5.28198584 0 0 Z " fill="#03335A" transform="translate(414.1875,391.1875)"/>
<path d="M0 0 C0.16516668 7.71972423 -0.48224327 15.26250329 -1.2421875 22.94140625 C-1.37212408 24.27699308 -1.50185037 25.61260039 -1.63137817 26.94822693 C-1.90251727 29.73295329 -2.17694467 32.51733145 -2.45361328 35.30151367 C-2.80585684 38.85001125 -3.14864885 42.39934955 -3.48882866 45.94902134 C-3.75398046 48.70255048 -4.02477162 51.45550386 -4.29715347 54.20832634 C-4.4877776 56.14656701 -4.673256 58.08531156 -4.85861206 60.02406311 C-5.47989754 66.19485739 -6.27831897 72.03722922 -8 78 C-10.12109375 78.82421875 -10.12109375 78.82421875 -13 79 C-15.28349107 77.33464186 -17.09287215 75.79203793 -19.0625 73.8125 C-19.57876953 73.31685547 -20.09503906 72.82121094 -20.62695312 72.31054688 C-22.88606376 70.13201598 -25.025367 67.97010834 -27.05859375 65.57421875 C-28.90878436 63.72655478 -28.90878436 63.72655478 -31.51171875 64.05859375 C-34.18288707 65.06919275 -35.7222409 66.13066054 -37.8125 68.0625 C-38.49828125 68.69414062 -39.1840625 69.32578125 -39.890625 69.9765625 C-40.93476562 70.97816406 -40.93476562 70.97816406 -42 72 C-42.67546875 72.64710938 -43.3509375 73.29421875 -44.046875 73.9609375 C-47.25088621 77.10285547 -50.28747276 80.32202277 -53.21484375 83.72265625 C-57.77471876 88.96368953 -62.73013588 93.77968622 -67.68359375 98.64453125 C-68.39644531 99.34964844 -69.10929688 100.05476563 -69.84375 100.78125 C-70.47474609 101.40064453 -71.10574219 102.02003906 -71.75585938 102.65820312 C-73.67701144 104.66295623 -75.49438818 106.70828873 -77.30859375 108.80859375 C-80.78481132 112.80692729 -84.4485539 116.56151588 -88.21875 120.28125 C-88.88032104 120.93903442 -89.54189209 121.59681885 -90.22351074 122.27453613 C-93.01578144 125.05066558 -95.81405416 127.82071537 -98.61181641 130.59130859 C-100.67040898 132.6316708 -102.72587903 134.67514331 -104.78125 136.71875 C-105.40124878 137.33045044 -106.02124756 137.94215088 -106.66003418 138.5723877 C-109.6369933 141.53288955 -112.49744516 144.53508208 -115.22875977 147.72436523 C-120.06062581 153.31442504 -125.33151958 158.4755835 -130.55859375 163.69140625 C-131.67300218 164.80649011 -132.78726229 165.92172222 -133.90138245 167.03709412 C-136.22536021 169.36253762 -138.55111464 171.68618511 -140.87817383 174.00854492 C-143.84120451 176.96587903 -146.7997217 179.92768128 -149.75691128 182.89085484 C-152.05352632 185.19110598 -154.35254566 187.48894231 -156.65226936 189.78608513 C-157.74329806 190.87645297 -158.83360177 191.9675468 -159.92312431 193.05941963 C-165.195826 198.34100088 -170.49054631 203.52752779 -176.1627655 208.38514709 C-179.43358379 211.26006068 -182.46949476 214.3669495 -185.52734375 217.46484375 C-186.20172989 218.14301651 -186.87611603 218.82118927 -187.57093811 219.51991272 C-189.69560354 221.65666492 -191.81694741 223.7966666 -193.9375 225.9375 C-196.75628311 228.78277721 -199.57830241 231.62478661 -202.40234375 234.46484375 C-203.05017319 235.12097153 -203.69800262 235.7770993 -204.36546326 236.45310974 C-205.89152706 237.98764931 -207.44308684 239.49676887 -209 241 C-209.33 241 -209.66 241 -210 241 C-210.04898438 239.94941406 -210.09796875 238.89882813 -210.1484375 237.81640625 C-211.297353 215.24707778 -219.9261664 199.14101173 -236.18359375 183.46875 C-257.23966813 165.01183043 -283.03270458 152.25958188 -310.6953125 147.87109375 C-314.45923165 146.87894958 -316.93249093 145.37117541 -320 143 C-322.20285851 138.59428297 -321.18584947 132.61421191 -321.18530273 127.71435547 C-321.18749147 125.5085935 -321.2056586 123.30332984 -321.22460938 121.09765625 C-321.22754293 119.70052255 -321.22952798 118.30338647 -321.23046875 116.90625 C-321.23457764 115.63072266 -321.23868652 114.35519531 -321.24291992 113.04101562 C-321 110 -321 110 -319 108 C-316.28916342 107.81197047 -313.68132726 107.74819827 -310.97021484 107.77294922 C-310.14086929 107.77265717 -309.31152374 107.77236511 -308.45704651 107.77206421 C-305.70823808 107.77346061 -302.95969873 107.78903632 -300.2109375 107.8046875 C-298.30807646 107.80841653 -296.4052135 107.81126402 -294.50234985 107.81326294 C-289.48814617 107.82090808 -284.47405791 107.84056411 -279.4598999 107.8626709 C-274.34567832 107.88311038 -269.23143813 107.89226059 -264.1171875 107.90234375 C-254.07807422 107.92380919 -244.0390467 107.95795573 -234 108 C-234 105.36 -234 102.72 -234 100 C-233.42500259 100.00129882 -232.85000519 100.00259764 -232.25758362 100.00393581 C-218.24300832 100.03318376 -204.22890197 100.02370356 -190.21438599 99.97153378 C-183.43689242 99.94723048 -176.6598451 99.93586049 -169.88232422 99.95532227 C-163.33981826 99.9740724 -156.79799907 99.95627131 -150.25558472 99.91632271 C-147.76139854 99.9070389 -145.26713586 99.90993956 -142.77297974 99.92530632 C-139.2747535 99.9447641 -135.77930743 99.92063891 -132.28125 99.88647461 C-131.25337875 99.9022908 -130.22550751 99.91810699 -129.16648865 99.93440247 C-122.65756058 99.81233898 -119.32512239 98.47711161 -114.71593475 93.85014057 C-114.14967628 93.23959418 -113.58341782 92.62904779 -113 92 C-112.07753479 91.11943939 -111.15506958 90.23887878 -110.20465088 89.33163452 C-109.36400085 88.49178009 -108.52335083 87.65192566 -107.65722656 86.78662109 C-106.94822456 86.08024757 -106.94822456 86.08024757 -106.22489929 85.35960388 C-104.69431766 83.83335213 -103.16733893 82.30355733 -101.640625 80.7734375 C-100.56319483 79.69668258 -99.48561639 78.62007601 -98.40789795 77.54360962 C-96.16402325 75.30119958 -93.92194271 73.05701545 -91.68115234 70.81152344 C-88.81769696 67.94235074 -85.94974649 65.07771977 -83.08044815 62.21439171 C-80.86010473 59.99766964 -78.64215808 57.77856178 -76.42491913 55.55873489 C-75.36835735 54.50150928 -74.31106121 53.44501701 -73.25299835 52.38929367 C-71.77462311 50.9134732 -70.29951639 49.43445894 -68.82519531 47.95458984 C-67.98772766 47.1163266 -67.15026001 46.27806335 -66.28741455 45.41439819 C-61.81229114 41.26947191 -61.81229114 41.26947191 -60.05029297 35.89233398 C-61.16009116 33.68101115 -62.36407845 32.38593094 -64.1953125 30.72265625 C-65.14470703 29.82836914 -65.14470703 29.82836914 -66.11328125 28.91601562 C-67.4567194 27.6782265 -68.80572347 26.4464518 -70.16015625 25.22070312 C-71.9293516 23.54376643 -73.56105694 21.96856208 -75 20 C-74.9296875 17.05859375 -74.9296875 17.05859375 -74 15 C-69.97601002 13.60783103 -65.97408509 12.44853766 -61.83032227 11.47192383 C-60.63210342 11.18855667 -59.43388458 10.90518951 -58.19935608 10.61323547 C-56.27729591 10.16466438 -56.27729591 10.16466438 -54.31640625 9.70703125 C-53.65765944 9.55316137 -52.99891262 9.3992915 -52.32020378 9.2407589 C-48.83757911 8.42786025 -45.35407612 7.61884915 -41.86987305 6.81274414 C-38.28546688 5.98254588 -34.70458784 5.13805084 -31.12428379 4.29036427 C-28.35597167 3.63782605 -25.5851767 2.99636094 -22.81361198 2.35779381 C-20.85372784 1.90318819 -18.89661932 1.43666912 -16.93959045 0.96992493 C-5.94796304 -1.53614862 -5.94796304 -1.53614862 0 0 Z " fill="#03335A" transform="translate(420,288)"/>
<path d="M0 0 C2.80228544 0.54141932 5.4530872 0.69514013 8.30493164 0.78393555 C9.36711914 0.82131836 10.42930664 0.85870117 11.52368164 0.8972168 C13.75804102 0.96802396 15.99241634 1.0383296 18.22680664 1.1081543 C19.81235352 1.16422852 19.81235352 1.16422852 21.42993164 1.22143555 C22.39833984 1.25172852 23.36674805 1.28202148 24.36450195 1.31323242 C26.60180664 1.50268555 26.60180664 1.50268555 27.60180664 2.50268555 C27.70060229 4.31297055 27.73152178 6.12721281 27.72680664 7.94018555 C27.73067383 9.42325195 27.73067383 9.42325195 27.73461914 10.9362793 C27.60180664 13.50268555 27.60180664 13.50268555 26.60180664 15.50268555 C23.63180664 15.50268555 20.66180664 15.50268555 17.60180664 15.50268555 C17.92407227 16.18717773 18.24633789 16.87166992 18.57836914 17.5769043 C20.85807617 24.09408203 20.90537957 32.64320185 18.03930664 39.00268555 C13.970413 45.61463771 8.27384858 49.30149562 1.00024414 51.7565918 C-6.02254738 53.29837706 -13.23141153 53.34500058 -20.39819336 53.50268555 C-20.06819336 55.15268555 -19.73819336 56.80268555 -19.39819336 58.50268555 C-12.51090832 59.69895934 -5.76221597 60.58378819 1.22680664 60.87768555 C8.9476477 61.348274 17.1971104 62.33999926 22.66430664 68.37768555 C26.46086735 74.50117056 27.74659591 80.4713848 26.13696289 87.5456543 C23.98592116 94.12606006 20.09636548 99.3939256 13.97680664 102.75268555 C-0.31233515 108.97234951 -17.07122783 109.96239072 -31.78881836 104.6394043 C-37.26777731 102.2526123 -40.93357018 99.50714125 -44.39819336 94.50268555 C-46.23243954 88.99994702 -46.36328163 83.51006914 -43.83569336 78.25268555 C-40.93857238 74.98413881 -37.81702419 72.21086053 -34.39819336 69.50268555 C-35.38819336 68.26518555 -35.38819336 68.26518555 -36.39819336 67.00268555 C-38.3791569 63.97088831 -39.03498144 61.36005248 -38.87084961 57.6706543 C-37.96539944 53.51755641 -35.68808227 50.035657 -33.39819336 46.50268555 C-33.99567383 45.8665332 -33.99567383 45.8665332 -34.60522461 45.2175293 C-41.08760067 38.04117624 -43.06454981 32.48279929 -42.80834961 22.79174805 C-41.97479658 16.10744659 -39.08174772 10.75634147 -34.21069336 6.12768555 C-24.38139048 -1.23383491 -11.90392535 -2.46852244 0 0 Z " fill="#033057" transform="translate(706.398193359375,538.497314453125)"/>
<path d="M0 0 C7.26 0 14.52 0 22 0 C27.51904047 14.80039766 32.74041678 29.68743652 37.875 44.625 C39.39117354 49.03456511 40.90938739 53.44341842 42.4296875 57.8515625 C42.98604889 59.46795624 42.98604889 59.46795624 43.5536499 61.11700439 C45.51360399 66.78833612 47.51434778 72.44163407 49.57519531 78.07714844 C50.20181564 79.79349991 50.20181564 79.79349991 50.84109497 81.54452515 C51.64290281 83.73225282 52.45032272 85.91793423 53.26412964 88.10122681 C53.8026506 89.56971573 53.8026506 89.56971573 54.35205078 91.06787109 C54.67102325 91.92641693 54.98999573 92.78496277 55.31863403 93.66952515 C56 96 56 96 56 100 C49.07 100 42.14 100 35 100 C33.845 96.7825 32.69 93.565 31.5 90.25 C30.95182617 88.73841309 30.95182617 88.73841309 30.39257812 87.19628906 C29.9662207 85.99311035 29.9662207 85.99311035 29.53125 84.765625 C29.23798828 83.94868164 28.94472656 83.13173828 28.64257812 82.29003906 C28 80 28 80 28 76 C16.78 76 5.56 76 -6 76 C-6.99 79.96 -7.98 83.92 -9 88 C-10.24234359 92.03865543 -11.62063495 96.00459777 -13 100 C-19.6 100 -26.2 100 -33 100 C-32.19264157 95.15584942 -31.07700505 90.89681871 -29.47265625 86.30859375 C-29.21190811 85.55010132 -28.95115997 84.79160889 -28.68251038 84.01013184 C-27.81336896 81.48445374 -26.93782777 78.96104002 -26.0625 76.4375 C-25.12880056 73.72840489 -24.1968843 71.01870023 -23.26501465 68.30897522 C-22.59733684 66.36782226 -21.92910931 64.42685831 -21.26037598 62.48606873 C-17.25351793 50.85175039 -13.30195159 39.19867977 -9.34909058 27.54592896 C-7.77739153 22.9128042 -6.20456566 18.28006231 -4.63172913 13.64732361 C-3.08751055 9.09832058 -1.54380337 4.54914396 0 0 Z " fill="#033057" transform="translate(843,513)"/>
<path d="M0 0 C1.32499512 0.01135986 1.32499512 0.01135986 2.67675781 0.02294922 C9.17364235 0.18735136 14.50584657 0.97955943 20.125 4.4375 C20.8365625 4.85 21.548125 5.2625 22.28125 5.6875 C29.9025625 10.69254105 34.36734853 18.84473752 36.65234375 27.546875 C38.73526252 40.28538648 37.13705523 52.0499693 30.5 63.25 C24.87992475 70.99165365 17.39860035 75.09460671 8.13671875 77.00390625 C-2.76075271 78.57280292 -12.7502342 77.21347739 -21.99609375 70.9375 C-29.76846811 64.73252753 -33.72868516 57.05071356 -35.875 47.4375 C-36.74506289 33.04580403 -35.56240603 20.88828178 -25.875 9.4375 C-18.31037669 2.26523267 -10.21803226 -0.12242983 0 0 Z " fill="#043158" transform="translate(568.875,537.5625)"/>
<path d="M0 0 C4.73103985 3.54827989 7.37718842 8.11882894 8.9375 13.78125 C9.89512872 20.75299514 10.0698063 27.56707576 10.03515625 34.59765625 C10.0337413 35.69472397 10.03232635 36.79179169 10.03086853 37.92210388 C10.02531012 41.39601469 10.01276546 44.86985896 10 48.34375 C9.99497962 50.71158761 9.99041766 53.07942623 9.98632812 55.44726562 C9.97535434 61.22528571 9.9581187 67.00325661 9.9375 72.78125 C4.3275 72.78125 -1.2825 72.78125 -7.0625 72.78125 C-7.7225 70.47125 -8.3825 68.16125 -9.0625 65.78125 C-9.71476563 66.19117188 -10.36703125 66.60109375 -11.0390625 67.0234375 C-11.91304687 67.56226563 -12.78703125 68.10109375 -13.6875 68.65625 C-14.54601562 69.18992187 -15.40453125 69.72359375 -16.2890625 70.2734375 C-23.35681462 74.11590555 -30.14382375 74.70114413 -38.0625 73.78125 C-44.23546694 71.67539159 -48.40913431 68.09523645 -52.0625 62.78125 C-55.01728179 56.71451718 -54.78645194 50.37891507 -54.0625 43.78125 C-51.73011588 37.33466042 -46.86484394 32.88497674 -40.97265625 29.625 C-31.59964047 25.47895826 -21.13635731 25.94398046 -11.0625 25.78125 C-11.79008394 18.80205687 -11.79008394 18.80205687 -15.640625 13.18359375 C-19.8884891 11.44274533 -23.2697463 11.21414763 -27.8125 11.34375 C-29.00141846 11.35921875 -29.00141846 11.35921875 -30.21435547 11.375 C-36.16598232 11.54055968 -41.54326683 12.45152344 -47.0625 14.78125 C-48.01511487 10.01817563 -48.14583357 5.6145972 -48.0625 0.78125 C-46.64771865 0.13129703 -45.23058513 -0.51353722 -43.8125 -1.15625 C-43.02359375 -1.51589844 -42.2346875 -1.87554687 -41.421875 -2.24609375 C-29.96784515 -6.96803652 -10.63526916 -6.28447723 0 0 Z " fill="#043057" transform="translate(616.0625,419.21875)"/>
<path d="M0 0 C1.41830582 4.08848362 0.78373386 7.6123734 0.0625 11.8125 C-0.13214844 12.97394531 -0.32679688 14.13539063 -0.52734375 15.33203125 C-0.76130859 16.65267578 -0.76130859 16.65267578 -1 18 C-1.80824219 17.72285156 -2.61648438 17.44570313 -3.44921875 17.16015625 C-4.51785156 16.79792969 -5.58648438 16.43570312 -6.6875 16.0625 C-7.74324219 15.70285156 -8.79898438 15.34320313 -9.88671875 14.97265625 C-20.17008076 11.75991203 -31.63644221 11.47855394 -41.6328125 15.75 C-49.23849706 19.76620307 -52.83176615 25.0663235 -56 33 C-58.61214623 42.11731614 -58.43788621 54.42598743 -54.17578125 62.96484375 C-53.59376953 63.97224609 -53.59376953 63.97224609 -53 65 C-52.68417969 65.64066406 -52.36835938 66.28132813 -52.04296875 66.94140625 C-48.36791254 73.31425653 -40.93342523 76.57647725 -34.06665039 78.55786133 C-22.6038264 81.01021505 -10.3740842 79.1870421 0 74 C0.107834 76.93847653 0.18721916 79.87301151 0.25 82.8125 C0.28351563 83.64587891 0.31703125 84.47925781 0.3515625 85.33789062 C0.44987064 91.45757224 0.44987064 91.45757224 -1.6328125 93.96875 C-16.71447537 100.53897937 -35.87523043 99.89051736 -51 94 C-62.53402617 88.18258855 -71.48036193 79.54547756 -76.00390625 67.27734375 C-76.74014955 64.86232347 -77.40194149 62.45247017 -78 60 C-78.25692627 59.087948 -78.25692627 59.087948 -78.51904297 58.1574707 C-81.3800238 45.32372066 -79.94816501 29.64704084 -73.421875 18.2421875 C-71.73554982 15.69750761 -69.94860408 13.34831773 -68 11 C-67.49984375 10.37609375 -66.9996875 9.7521875 -66.484375 9.109375 C-50.44765252 -8.87119263 -20.25331345 -12.99269165 0 0 Z " fill="#043057" transform="translate(552,395)"/>
<path d="M0 0 C8.8407105 6.12740301 14.37772551 12.77381085 16.921875 23.33203125 C16.921875 28.94203125 16.921875 34.55203125 16.921875 40.33203125 C0.751875 40.33203125 -15.418125 40.33203125 -32.078125 40.33203125 C-28.43748885 50.15593319 -28.43748885 50.15593319 -21.078125 56.33203125 C-11.68771585 60.08561513 -2.12553497 58.76926402 7.36328125 55.98828125 C9.921875 55.33203125 9.921875 55.33203125 13.921875 55.33203125 C14.0028956 57.4355662 14.06107407 59.53999077 14.109375 61.64453125 C14.14417969 62.81628906 14.17898438 63.98804688 14.21484375 65.1953125 C13.921875 68.33203125 13.921875 68.33203125 12.5546875 70.1796875 C5.50412104 75.15556574 -3.52226429 74.56825092 -11.765625 74.64453125 C-13.30379883 74.68803711 -13.30379883 74.68803711 -14.87304688 74.73242188 C-26.34429044 74.82662665 -34.71701028 71.67847556 -42.98046875 63.703125 C-45.82022193 60.49319915 -47.64728953 57.35236787 -49.078125 53.33203125 C-49.43132813 52.47351563 -49.78453125 51.615 -50.1484375 50.73046875 C-53.12119721 39.86365803 -52.68899622 25.19882646 -47.078125 15.33203125 C-42.27381306 7.46791257 -35.90557292 1.2176478 -27.15234375 -1.97265625 C-18.53015134 -3.92278363 -7.92644797 -4.34725732 0 0 Z " fill="#032F56" transform="translate(820.078125,417.66796875)"/>
<path d="M0 0 C8.53208726 5.57867244 12.41872438 14.4150301 14.5390625 24.09375 C15.35257225 29.22299794 15.66476484 34.00570548 14 39 C-2.17 39 -18.34 39 -35 39 C-30.59244818 49.54892695 -30.59244818 49.54892695 -22 56 C-14.44507703 58.37113383 -5.92659873 57.29225228 1.6484375 55.53515625 C4.41622162 54.90527847 7.1976712 54.44821109 10 54 C10.10794277 56.26979665 10.18556176 58.54105196 10.25 60.8125 C10.29640625 62.07707031 10.3428125 63.34164062 10.390625 64.64453125 C10 68 10 68 8.421875 69.82421875 C0.94329587 73.4549483 -6.16782937 73.36609851 -14.375 73.375 C-15.55578125 73.39949219 -16.7365625 73.42398438 -17.953125 73.44921875 C-25.24184704 73.4735686 -30.66962264 72.67687402 -37 69 C-37.79792969 68.55398438 -38.59585938 68.10796875 -39.41796875 67.6484375 C-44.92258388 63.68705884 -48.02248225 59.04779305 -51 53 C-51.34160156 52.32453125 -51.68320312 51.6490625 -52.03515625 50.953125 C-55.87805951 41.73015718 -55.43115362 28.55328292 -52.03515625 19.265625 C-47.65776782 9.6849258 -42.20660088 2.2617478 -32.5625 -2.4375 C-22.32700596 -6.09190359 -9.38599192 -5.543773 0 0 Z " fill="#032F56" transform="translate(745,419)"/>
<path d="M0 0 C7.61573255 5.49647364 12.18804175 11.85747774 14.625 20.89453125 C14.625 26.83453125 14.625 32.77453125 14.625 38.89453125 C-1.215 38.89453125 -17.055 38.89453125 -33.375 38.89453125 C-30.00729931 48.38382325 -30.00729931 48.38382325 -23.375 53.89453125 C-22.8284375 54.25933594 -22.281875 54.62414062 -21.71875 55 C-18.16740811 56.35542882 -14.62404207 56.23190567 -10.875 56.20703125 C-10.07852051 56.20574219 -9.28204102 56.20445312 -8.46142578 56.203125 C-1.80551936 56.09579331 4.29012698 54.98131295 10.625 52.89453125 C10.76001894 55.3338735 10.85903897 57.76577229 10.9375 60.20703125 C10.97939453 60.89732422 11.02128906 61.58761719 11.06445312 62.29882812 C11.11328125 64.3203125 11.11328125 64.3203125 10.625 67.89453125 C2.50144673 74.83725278 -12.12105547 73.58164938 -22.21044922 73.07666016 C-31.96860673 72.25559254 -39.08044848 67.16621531 -45.375 59.89453125 C-52.19414603 49.39368667 -53.57003166 38.11073508 -52.375 25.89453125 C-51.50023876 21.9368277 -50.20128147 18.50517953 -48.375 14.89453125 C-48.01277344 14.16878906 -47.65054688 13.44304688 -47.27734375 12.6953125 C-43.02682259 5.13082569 -36.54403059 -0.54572567 -28.3359375 -3.4375 C-18.32086181 -5.69683766 -8.98369107 -5.21200555 0 0 Z " fill="#032F57" transform="translate(789.375,542.10546875)"/>
<path d="M0 0 C19.47 0 38.94 0 59 0 C59 5.61 59 11.22 59 17 C58 18 58 18 54.39819336 18.11352539 C52.79540144 18.11336625 51.1926044 18.10767063 49.58984375 18.09765625 C48.74780899 18.0962413 47.90577423 18.09482635 47.03822327 18.09336853 C44.33794665 18.08775263 41.63775172 18.07519748 38.9375 18.0625 C37.11132932 18.05748705 35.28515734 18.05292379 33.45898438 18.04882812 C28.97259915 18.03862716 24.48639145 18.01905499 20 18 C20 25.59 20 33.18 20 41 C30.89 41 41.78 41 53 41 C53.020625 43.784375 53.04125 46.56875 53.0625 49.4375 C53.071604 50.31591553 53.08070801 51.19433105 53.09008789 52.09936523 C53.09723091 54.06645974 53.05031893 56.03353621 53 58 C52 59 52 59 48.94897461 59.11352539 C47.60008731 59.11327443 46.25119355 59.10771815 44.90234375 59.09765625 C42.95702759 59.09390991 42.95702759 59.09390991 40.97241211 59.09008789 C39.31089111 59.08098389 37.64937012 59.07187988 35.9375 59.0625 C30.678125 59.041875 25.41875 59.02125 20 59 C20 72.53 20 86.06 20 100 C13.4 100 6.8 100 0 100 C0 67 0 34 0 0 Z " fill="#02345B" transform="translate(473,513)"/>
<path d="M0 0 C6.27 0 12.54 0 19 0 C19 33 19 66 19 100 C12.73 100 6.46 100 0 100 C0 67 0 34 0 0 Z " fill="#022E55" transform="translate(909,513)"/>
<path d="M0 0 C0 5.61 0 11.22 0 17 C-7.125 17.75 -7.125 17.75 -9.33251953 17.95605469 C-15.04200708 18.64051183 -18.94583004 20.53150245 -22.63647461 24.96655273 C-24.67789708 29.50812376 -24.48030532 33.8423265 -24.51171875 38.76953125 C-24.52966995 39.80567062 -24.54762115 40.84181 -24.56611633 41.90934753 C-24.62018686 45.21035729 -24.65410523 48.51122269 -24.6875 51.8125 C-24.72067588 54.05405653 -24.75516578 56.29559402 -24.79101562 58.53710938 C-24.8759118 64.0246354 -24.942739 69.51211884 -25 75 C-31.6 75 -38.2 75 -45 75 C-45 50.91 -45 26.82 -45 2 C-39.06 2 -33.12 2 -27 2 C-26.34 4.31 -25.68 6.62 -25 9 C-24.505 8.2575 -24.01 7.515 -23.5 6.75 C-16.71006943 -0.71892362 -9.71015476 -0.40458978 0 0 Z " fill="#022E55" transform="translate(894,416)"/>
<path d="M0 0 C1 1 1 1 1.09765625 4.81640625 C1.09098089 6.39846682 1.07901875 7.98051159 1.0625 9.5625 C1.05798828 10.36880859 1.05347656 11.17511719 1.04882812 12.00585938 C1.03700518 14.00393756 1.01906914 16.00197783 1 18 C0.2265625 18.02578125 -0.546875 18.0515625 -1.34375 18.078125 C-10.8458195 18.54170952 -10.8458195 18.54170952 -19 23 C-22.52471328 28.44334609 -22.47063458 33.37819737 -22.51171875 39.6484375 C-22.52966995 40.66096588 -22.54762115 41.67349426 -22.56611633 42.71670532 C-22.62009958 45.93609511 -22.65407707 49.15533763 -22.6875 52.375 C-22.7206836 54.56382252 -22.75517422 56.75262564 -22.79101562 58.94140625 C-22.87826886 64.29429064 -22.93844126 69.64651225 -23 75 C-29.6 75 -36.2 75 -43 75 C-43 50.91 -43 26.82 -43 2 C-37.06 2 -31.12 2 -25 2 C-24.34 4.31 -23.68 6.62 -23 9 C-22.505 8.2575 -22.01 7.515 -21.5 6.75 C-15.47673307 0.12440638 -8.71815038 -0.93463475 0 0 Z " fill="#022E55" transform="translate(657,538)"/>
<path d="M0 0 C0 5.61 0 11.22 0 17 C-2.02125 17.103125 -4.0425 17.20625 -6.125 17.3125 C-12.77058844 17.84587695 -16.65930242 18.83104255 -21.61206055 23.42041016 C-25.17041917 27.80913223 -24.72796201 32.66264525 -24.70703125 38.0859375 C-24.72971321 39.67131821 -24.72971321 39.67131821 -24.75285339 41.28872681 C-24.79570168 44.65103539 -24.80456605 48.01244568 -24.8125 51.375 C-24.83564639 53.66018008 -24.86101202 55.94533884 -24.88867188 58.23046875 C-24.95149658 63.82039182 -24.9838542 69.40975508 -25 75 C-31.6 75 -38.2 75 -45 75 C-45 50.91 -45 26.82 -45 2 C-39.06 2 -33.12 2 -27 2 C-26.34 3.98 -25.68 5.96 -25 8 C-24.32904297 7.38511719 -24.32904297 7.38511719 -23.64453125 6.7578125 C-23.03996094 6.21898437 -22.43539062 5.68015625 -21.8125 5.125 C-21.22082031 4.59132813 -20.62914062 4.05765625 -20.01953125 3.5078125 C-13.81436068 -1.12506147 -7.44077317 -0.15031865 0 0 Z " fill="#022E55" transform="translate(686,416)"/>
<path d="M0 0 C5.74441601 2.872208 9.12527439 6.50703201 11.25 12.5625 C13.21406475 22.06143135 12.6880387 31.38144104 8 40 C5.26963806 43.14130927 2.05863863 45.77414216 -2.171875 46.23828125 C-8.0102038 46.40635435 -11.42827085 46.01420121 -16 42 C-21.61431634 36.18517236 -21.3916059 27.93144528 -21.36791992 20.36254883 C-21.23581633 14.61447718 -20.46436389 9.7565382 -17 5 C-11.62563205 -0.11844566 -7.24513065 -0.80253755 0 0 Z " fill="#F8F8F7" transform="translate(574,553)"/>
<path d="M0 0 C2.80169398 1.3563341 3.91610376 2.57817465 6 5 C7.73984917 10.21954752 7.91699243 15.8450678 5.75 20.9375 C3.12623194 24.02979807 1.27328045 25.82135542 -2.83984375 26.3984375 C-3.86207031 26.39070312 -4.88429688 26.38296875 -5.9375 26.375 C-6.95714844 26.38273438 -7.97679687 26.39046875 -9.02734375 26.3984375 C-12.43790819 25.94130534 -14.28014982 25.09073701 -17 23 C-20.25256197 18.39302773 -19.72350284 12.36538245 -19 7 C-14.98687917 -0.95164833 -8.00526912 -0.94977769 0 0 Z " fill="#F8F8F7" transform="translate(701,552)"/>
<path d="M0 0 C1.20390381 0.02936646 1.20390381 0.02936646 2.43212891 0.05932617 C8.93787724 0.27935605 14.82474869 0.85018842 20.8125 3.625 C22.25 5.4375 22.25 5.4375 22.8125 8.875 C22.25 12.4375 22.25 12.4375 20.1875 14.75 C12.31654101 19.27161474 3.32034888 19.68752953 -5.51953125 17.8671875 C-11.31643534 16.08784699 -11.31643534 16.08784699 -13.75 12.4375 C-14.29786702 8.21109729 -14.32259013 6.21789405 -11.76953125 2.73828125 C-7.72044024 -0.34698991 -4.94332423 -0.21783276 0 0 Z " fill="#F4F4F4" transform="translate(691.75,613.5625)"/>
<path d="M0 0 C2.75433274 5.02179621 4.01348398 10.56451156 5.56884766 16.04492188 C6.12372438 17.99551574 6.68841254 19.94308626 7.25390625 21.890625 C7.60582031 23.12296875 7.95773437 24.3553125 8.3203125 25.625 C8.64273926 26.75164063 8.96516602 27.87828125 9.29736328 29.0390625 C10 32 10 32 10 36 C3.07 36 -3.86 36 -11 36 C-9.7572565 31.67596862 -8.51295234 27.35244985 -7.26464844 23.0300293 C-6.84087493 21.56089388 -6.41801155 20.0914956 -5.99609375 18.62182617 C-5.38783742 16.50368827 -4.77626348 14.38653193 -4.1640625 12.26953125 C-3.97752106 11.61725052 -3.79097961 10.96496979 -3.5987854 10.29292297 C-2.5773648 6.77388703 -1.42689472 3.37548019 0 0 Z " fill="#F6F7F6" transform="translate(854,536)"/>
<path d="M0 0 C3.77402513 1.45938022 6.15603299 3.44516472 8.08984375 7.0078125 C9.35499248 10.16776924 10 12.57394286 10 16 C0.1 16 -9.8 16 -20 16 C-18.87041954 8.0929368 -18.87041954 8.0929368 -16.625 5.1875 C-16.20476563 4.62417969 -15.78453125 4.06085938 -15.3515625 3.48046875 C-11.05676173 -1.22395175 -5.90464135 -0.78343705 0 0 Z " fill="#F7F7F6" transform="translate(809,430)"/>
<path d="M0 0 C3.89195522 1.98135902 6.94325506 4.10300958 9 8 C9.33 10.64 9.66 13.28 10 16 C0.1 16 -9.8 16 -20 16 C-18.89999246 9.39995478 -17.2306045 6.49302856 -12.875 1.625 C-8.61604292 -0.78223661 -4.78102419 -0.76618977 0 0 Z " fill="#F7F7F6" transform="translate(731,430)"/>
<path d="M0 0 C0.70189453 0.00451172 1.40378906 0.00902344 2.12695312 0.01367188 C3.85550538 0.02543073 5.58401365 0.04336546 7.3125 0.0625 C7.44739391 2.33171536 7.54443995 4.6032067 7.625 6.875 C7.68300781 8.13957031 7.74101563 9.40414063 7.80078125 10.70703125 C7.3125 14.0625 7.3125 14.0625 4.97265625 15.9375 C-0.38186043 18.2019652 -4.78973089 19.81312516 -10.6875 19.0625 C-13.60713173 17.07466563 -15.29852978 15.6310303 -16.16796875 12.125 C-16.45569109 8.01912439 -15.98656727 6.44239626 -13.375 3.125 C-9.01595362 -0.22031466 -5.26631019 -0.06392347 0 0 Z " fill="#F7F7F6" transform="translate(597.6875,457.9375)"/>
<path d="M0 0 C3.11045733 2.05007415 4.82874239 3.61040398 6.75 6.8125 C7.08 9.4525 7.41 12.0925 7.75 14.8125 C-1.82 14.8125 -11.39 14.8125 -21.25 14.8125 C-20.25157054 7.82349379 -19.36690947 4.40992456 -14 -0.0625 C-9.0209333 -2.09939092 -4.91636794 -1.79636521 0 0 Z " fill="#F6F6F6" transform="translate(778.25,554.1875)"/>
<path d="M0 0 C19.47 0 38.94 0 59 0 C59 5.61 59 11.22 59 17 C58 18 58 18 54.39819336 18.11352539 C52.79540144 18.11336625 51.1926044 18.10767063 49.58984375 18.09765625 C48.74780899 18.0962413 47.90577423 18.09482635 47.03822327 18.09336853 C44.33794665 18.08775263 41.63775172 18.07519748 38.9375 18.0625 C37.11132932 18.05748705 35.28515734 18.05292379 33.45898438 18.04882812 C28.97259915 18.03862716 24.48639145 18.01905499 20 18 C20 25.26 20 32.52 20 40 C19.67 40 19.34 40 19 40 C18.97112764 36.18751574 18.95324508 32.3750593 18.9375 28.5625 C18.92912109 27.47388672 18.92074219 26.38527344 18.91210938 25.26367188 C18.90727539 23.71196289 18.90727539 23.71196289 18.90234375 22.12890625 C18.89448853 20.69140015 18.89448853 20.69140015 18.88647461 19.22485352 C19 17 19 17 20 16 C22.73894085 15.91141354 25.4525327 15.88476521 28.19140625 15.90234375 C29.01124496 15.9037587 29.83108368 15.90517365 30.67576599 15.90663147 C33.30471382 15.91224711 35.93357773 15.92480221 38.5625 15.9375 C40.34049357 15.94251299 42.11848846 15.94707624 43.89648438 15.95117188 C48.26435545 15.96222161 52.63216348 15.97949669 57 16 C57 11.05 57 6.1 57 1 C38.52 1 20.04 1 1 1 C1 33.34 1 65.68 1 99 C6.94 99 12.88 99 19 99 C19 85.47 19 71.94 19 58 C19.33 58 19.66 58 20 58 C20 71.86 20 85.72 20 100 C13.4 100 6.8 100 0 100 C0 67 0 34 0 0 Z " fill="#020C2D" transform="translate(473,513)"/>
<path d="M0 0 C10.89 0 21.78 0 33 0 C33.020625 2.784375 33.04125 5.56875 33.0625 8.4375 C33.071604 9.31591553 33.08070801 10.19433105 33.09008789 11.09936523 C33.09723091 13.06645974 33.05031893 15.03353621 33 17 C32 18 32 18 28.94897461 18.11352539 C27.60008729 18.11336634 26.25119386 18.10767612 24.90234375 18.09765625 C23.83905602 18.09553383 23.83905602 18.09553383 22.75428772 18.09336853 C20.48198288 18.08775443 18.20977525 18.07519963 15.9375 18.0625 C14.40039204 18.05748681 12.86328255 18.05292359 11.32617188 18.04882812 C7.55074358 18.03778042 3.77538829 18.02050641 0 18 C0 17.34 0 16.68 0 16 C10.23 16 20.46 16 31 16 C31 11.05 31 6.1 31 1 C20.77 1 10.54 1 0 1 C0 0.67 0 0.34 0 0 Z " fill="#17274C" transform="translate(493,554)"/>
<path d="M0 0 C0.33 0.99 0.66 1.98 1 3 C0.46375 3.4640625 -0.0725 3.928125 -0.625 4.40625 C-9.12114616 11.89627359 -17.04268444 19.94629504 -25 28 C-25 25 -25 25 -22.70507812 22.36450195 C-21.6548023 21.3147016 -20.59625766 20.27313331 -19.53125 19.23828125 C-18.97634888 18.68762497 -18.42144775 18.13696869 -17.84973145 17.56962585 C-16.07339313 15.81009875 -14.2869152 14.06127835 -12.5 12.3125 C-11.29489115 11.12243479 -10.09045517 9.93168777 -8.88671875 8.74023438 C-5.93223292 5.81885021 -2.96861031 2.90702744 0 0 Z " fill="#02133B" transform="translate(229,532)"/>
<path d="M0 0 C1.4606285 2.64738916 2 3.89448334 2 7 C-7.9 7 -17.8 7 -28 7 C-28 6.67 -28 6.34 -28 6 C-19.09 5.67 -10.18 5.34 -1 5 C-0.67 3.35 -0.34 1.7 0 0 Z " fill="#EAECEE" transform="translate(817,439)"/>
<path d="M0 0 C-0.33 0.66 -0.66 1.32 -1 2 C-0.34 2.66 0.32 3.32 1 4 C-1.31 3.67 -3.62 3.34 -6 3 C-6 2.01 -6 1.02 -6 0 C-3 -1 -3 -1 0 0 Z " fill="#E8EBED" transform="translate(693,595)"/>
<path d="M0 0 C3.3 0 6.6 0 10 0 C8.515 1.485 8.515 1.485 7 3 C3.3125 2.6875 3.3125 2.6875 0 2 C0 1.34 0 0.68 0 0 Z " fill="#EBEFF1" transform="translate(564,553)"/>
<path d="M0 0 C0 0.99 0 1.98 0 3 C-0.7425 3.2475 -1.485 3.495 -2.25 3.75 C-5.20124062 5.09147301 -6.84814974 6.60905526 -9 9 C-7.67183131 4.6532661 -5.0855272 0 0 0 Z " fill="#091F45" transform="translate(878,418)"/>
<path d="M0 0 C0 3.17370278 -0.30933342 4.3794668 -2 7 C-4.125 8.25 -4.125 8.25 -6 9 C-4.68775452 5.06326356 -3.08089673 2.77280706 0 0 Z " fill="#03163C" transform="translate(673,544)"/>
</svg>
